<svg width="607" height="44" viewBox="0 0 607 44" fill="none" xmlns="http://www.w3.org/2000/svg">
<g opacity="0.5" clip-path="url(#clip0)">
<path d="M28.6667 16.3334L22 24.3334H28L27.3333 29.6667L34 21.6667H28L28.6667 16.3334Z" stroke="#E4E4EE" stroke-width="1.5" stroke-linecap="round" stroke-linejoin="round"/>
</g>
<path d="M48.1985 27H54.7876V25.5831H49.8445V16.0909H48.1985V27ZM59.9838 27.1651C62.2903 27.1651 63.7978 25.4766 63.7978 22.9464C63.7978 20.4002 62.2903 18.7116 59.9838 18.7116C57.6774 18.7116 56.1699 20.4002 56.1699 22.9464C56.1699 25.4766 57.6774 27.1651 59.9838 27.1651ZM59.9892 25.8281C58.4817 25.8281 57.7786 24.5124 57.7786 22.9411C57.7786 21.375 58.4817 20.0433 59.9892 20.0433C61.486 20.0433 62.1891 21.375 62.1891 22.9411C62.1891 24.5124 61.486 25.8281 59.9892 25.8281ZM69.0059 30.2227C71.0887 30.2227 72.6974 29.2692 72.6974 27.1811V18.8182H71.1366V20.1445H71.0194C70.7371 19.6385 70.1725 18.7116 68.6491 18.7116C66.6729 18.7116 65.2187 20.2724 65.2187 22.8771C65.2187 25.4872 66.7048 26.8775 68.6384 26.8775C70.1405 26.8775 70.7211 26.0305 71.0088 25.5085H71.11V27.1172C71.11 28.3796 70.2311 28.9389 69.0219 28.9389C67.6956 28.9389 67.1789 28.2731 66.8966 27.8203L65.5276 28.3849C65.9591 29.3704 67.051 30.2227 69.0059 30.2227ZM68.99 25.5565C67.5677 25.5565 66.8273 24.4645 66.8273 22.8558C66.8273 21.2844 67.5518 20.0646 68.99 20.0646C70.3802 20.0646 71.126 21.1992 71.126 22.8558C71.126 24.5444 70.3643 25.5565 68.99 25.5565ZM81.1841 27.1811C82.5371 27.1811 83.2988 26.494 83.6025 25.8814H83.6664V27H85.2218V21.5668C85.2218 19.1857 83.3468 18.7116 82.0471 18.7116C80.5662 18.7116 79.2026 19.3082 78.6699 20.7997L80.1667 21.1406C80.4011 20.56 80.9977 20.0007 82.0684 20.0007C83.0964 20.0007 83.6238 20.5387 83.6238 21.4656V21.5028C83.6238 22.0835 83.0272 22.0728 81.557 22.2433C80.0069 22.4244 78.4196 22.8292 78.4196 24.6882C78.4196 26.2969 79.6287 27.1811 81.1841 27.1811ZM81.5304 25.9027C80.6301 25.9027 79.9803 25.4979 79.9803 24.7095C79.9803 23.8572 80.7367 23.5536 81.6582 23.4311C82.1749 23.3619 83.4 23.2234 83.6291 22.9943V24.049C83.6291 25.0185 82.8567 25.9027 81.5304 25.9027ZM88.9358 22.142C88.9358 20.837 89.7348 20.0913 90.8428 20.0913C91.9241 20.0913 92.5793 20.7997 92.5793 21.9876V27H94.172V21.7958C94.172 19.7717 93.0587 18.7116 91.3861 18.7116C90.1556 18.7116 89.3513 19.2816 88.9731 20.1499H88.8719V18.8182H87.3431V27H88.9358V22.142ZM102.659 27.1811C104.012 27.1811 104.773 26.494 105.077 25.8814H105.141V27H106.696V21.5668C106.696 19.1857 104.821 18.7116 103.522 18.7116C102.041 18.7116 100.677 19.3082 100.145 20.7997L101.641 21.1406C101.876 20.56 102.472 20.0007 103.543 20.0007C104.571 20.0007 105.098 20.5387 105.098 21.4656V21.5028C105.098 22.0835 104.502 22.0728 103.032 22.2433C101.482 22.4244 99.8942 22.8292 99.8942 24.6882C99.8942 26.2969 101.103 27.1811 102.659 27.1811ZM103.005 25.9027C102.105 25.9027 101.455 25.4979 101.455 24.7095C101.455 23.8572 102.211 23.5536 103.133 23.4311C103.65 23.3619 104.875 23.2234 105.104 22.9943V24.049C105.104 25.0185 104.331 25.9027 103.005 25.9027ZM112.264 27.1651C114.198 27.1651 115.449 26.0039 115.625 24.4112H114.075C113.873 25.2955 113.186 25.8175 112.275 25.8175C110.927 25.8175 110.059 24.6935 110.059 22.9091C110.059 21.1566 110.943 20.054 112.275 20.054C113.287 20.054 113.905 20.6932 114.075 21.4602H115.625C115.455 19.8089 114.107 18.7116 112.248 18.7116C109.942 18.7116 108.45 20.4482 108.45 22.9464C108.45 25.4126 109.888 27.1651 112.264 27.1651ZM121.148 18.8182H119.47V16.858H117.877V18.8182H116.679V20.0966H117.877V24.9279C117.872 26.4141 119.006 27.1332 120.263 27.1065C120.77 27.1012 121.11 27.0053 121.297 26.9361L121.009 25.6204C120.903 25.6417 120.706 25.6896 120.45 25.6896C119.933 25.6896 119.47 25.5192 119.47 24.5977V20.0966H121.148V18.8182ZM122.91 27H124.502V18.8182H122.91V27ZM123.714 17.5558C124.263 17.5558 124.721 17.1296 124.721 16.6076C124.721 16.0856 124.263 15.6541 123.714 15.6541C123.16 15.6541 122.707 16.0856 122.707 16.6076C122.707 17.1296 123.16 17.5558 123.714 17.5558ZM133.644 18.8182H131.934L129.868 25.1143H129.782L127.71 18.8182H126L128.973 27H130.677L133.644 18.8182ZM135.141 27H136.734V18.8182H135.141V27ZM135.945 17.5558C136.494 17.5558 136.952 17.1296 136.952 16.6076C136.952 16.0856 136.494 15.6541 135.945 15.6541C135.391 15.6541 134.939 16.0856 134.939 16.6076C134.939 17.1296 135.391 17.5558 135.945 17.5558ZM142.696 18.8182H141.018V16.858H139.425V18.8182H138.226V20.0966H139.425V24.9279C139.42 26.4141 140.554 27.1332 141.811 27.1065C142.317 27.1012 142.658 27.0053 142.845 26.9361L142.557 25.6204C142.451 25.6417 142.253 25.6896 141.998 25.6896C141.481 25.6896 141.018 25.5192 141.018 24.5977V20.0966H142.696V18.8182ZM145.464 30.0469C146.78 30.0469 147.616 29.3597 148.085 28.092L151.467 18.8342L149.747 18.8182L147.675 25.1676H147.589L145.517 18.8182H143.813L146.806 27.1065L146.609 27.6499C146.205 28.7099 145.635 28.8058 144.761 28.5661L144.377 29.8711C144.569 29.9616 144.985 30.0469 145.464 30.0469Z" fill="#E4E4EE" fill-opacity="0.8"/>
<rect x="567" y="12" width="20" height="20" rx="4" fill="#E4E4EE" fill-opacity="0.1"/>
<path d="M580.795 20.1108C580.497 18.2443 579.035 17.1534 577.19 17.1534C574.932 17.1534 573.265 18.8452 573.265 21.6364C573.265 24.4276 574.923 26.1193 577.19 26.1193C579.108 26.1193 580.51 24.9176 580.795 23.1918L579.466 23.1875C579.24 24.304 578.302 24.9176 577.199 24.9176C575.703 24.9176 574.574 23.7713 574.574 21.6364C574.574 19.5185 575.699 18.3551 577.203 18.3551C578.315 18.3551 579.248 18.9815 579.466 20.1108H580.795Z" fill="#828282"/>
<defs>
<clipPath id="clip0">
<rect width="15" height="16" fill="white" transform="translate(20 14)"/>
</clipPath>
</defs>
</svg>
